<svg width="74" height="42" viewBox="0 0 74 42" fill="none" xmlns="http://www.w3.org/2000/svg">
<path d="M2.81628 41.4644C2.44812 41.4644 2.07714 41.3925 1.72466 41.2442C0.679653 40.8049 0 39.7816 0 38.6477V2.81943C0 1.26358 1.26124 0.00274658 2.81668 0.00274658H39.4344C40.5794 0.00274658 41.6104 0.695663 42.0428 1.75594C42.4753 2.81621 42.2229 4.03243 41.4046 4.83307L4.78651 40.6614C4.24994 41.1867 3.53894 41.4644 2.81628 41.4644ZM5.63337 5.63611V31.9509L32.5285 5.63611H5.63337V5.63611Z" fill="#FEE213"/>
<path d="M54.8247 41.4636C54.6266 41.4636 54.426 41.4427 54.2255 41.3993C52.9309 41.1179 52.0068 39.9716 52.0068 38.6465V9.55122L20.465 40.6521C19.3573 41.7437 17.5736 41.7317 16.4816 40.624C15.3892 39.5163 15.402 37.7325 16.5097 36.6401L52.8465 0.811791C53.6551 0.0143743 54.8641 -0.219548 55.9111 0.218951C56.9585 0.657048 57.6406 1.68196 57.6406 2.81739V25.6792L68.5986 1.64859C69.1485 0.442823 70.4632 -0.217134 71.7594 0.0646143C73.0544 0.345961 73.9784 1.49185 73.9784 2.81739V38.6457C73.9784 40.2015 72.7172 41.4624 71.1613 41.4624C69.6059 41.4624 68.3446 40.2011 68.3446 38.6457V15.7839L57.3866 39.8153C56.922 40.8346 55.9091 41.4636 54.8247 41.4636Z" fill="#F0F0F0"/>
</svg>
