<svg width="32" height="31" viewBox="0 0 32 31" fill="none" xmlns="http://www.w3.org/2000/svg">
<path d="M15.6319 0C7.00008 0 0 7.02744 0 15.6964C0 22.6301 4.47911 28.5123 10.6936 30.5897C11.4753 30.7343 11.7606 30.2496 11.7606 29.8334C11.7606 29.4601 11.7469 28.4732 11.7391 27.1639C7.39093 28.1117 6.47244 25.0592 6.47244 25.0592C5.76305 23.2457 4.73707 22.763 4.73707 22.763C3.31634 21.7898 4.8426 21.8093 4.8426 21.8093C6.41185 21.9207 7.23654 23.4274 7.23654 23.4274C8.63187 25.8253 10.8968 25.1335 11.788 24.7309C11.9287 23.7166 12.3332 23.0248 12.7807 22.632C9.30999 22.2353 5.65947 20.8888 5.65947 14.8757C5.65947 13.1618 6.2692 11.7606 7.26976 10.6623C7.10756 10.2656 6.5721 8.669 7.4222 6.50957C7.4222 6.50957 8.73544 6.08745 11.7215 8.1179C12.9683 7.77005 14.305 7.59612 15.6359 7.59026C16.9628 7.59808 18.3014 7.77005 19.5502 8.11986C22.5343 6.08941 23.8456 6.51152 23.8456 6.51152C24.6977 8.67291 24.1622 10.2676 24.0019 10.6643C25.0045 11.7626 25.6083 13.1637 25.6083 14.8776C25.6083 20.9064 21.9539 22.2334 18.4715 22.6223C19.0323 23.1069 19.5326 24.0645 19.5326 25.5282C19.5326 27.6271 19.5131 29.3194 19.5131 29.8334C19.5131 30.2536 19.7945 30.7421 20.5879 30.5877C26.7926 28.5084 31.2678 22.6281 31.2678 15.6964C31.2678 7.02744 24.2677 0 15.6319 0Z" fill="black"/>
</svg>
