<svg width="28" height="27" viewBox="0 0 28 27" fill="none" xmlns="http://www.w3.org/2000/svg">
<path fill-rule="evenodd" clip-rule="evenodd" d="M27.9996 26.9441C25.9521 26.9441 23.9289 26.9441 21.8754 26.9441C21.8754 26.8548 21.8754 26.7685 21.8754 26.6824C21.8754 23.5688 21.8746 20.4547 21.8765 17.341C21.8768 16.6962 21.8264 16.0586 21.6467 15.4368C21.0543 13.3864 18.6574 12.675 17.0364 14.0773C16.2771 14.7341 15.8588 15.5677 15.8547 16.5883C15.8516 17.278 15.8503 17.9675 15.8503 18.6575C15.8497 21.3343 15.85 24.0108 15.85 26.6879C15.85 26.7682 15.85 26.8485 15.85 26.9414C13.8036 26.9414 11.7763 26.9414 9.74359 26.9414C9.74359 20.9394 9.74359 14.9465 9.74359 8.93878C11.7635 8.93878 13.7915 8.93878 15.841 8.93878C15.841 9.66827 15.841 10.4019 15.841 11.1352C15.8631 11.1503 15.885 11.1651 15.9069 11.1801C15.9217 11.1437 15.9293 11.1029 15.9512 11.0719C17.2121 9.29229 18.9594 8.49237 21.1096 8.50416C22.7182 8.51293 24.199 8.91248 25.4601 9.95628C26.5896 10.891 27.2499 12.1201 27.6275 13.5163C27.8891 14.4845 27.9972 15.474 27.998 16.4745C28.0015 19.9025 27.9993 23.3304 27.9993 26.7581C27.9996 26.8118 27.9996 26.866 27.9996 26.9441Z" fill="#4484FF"/>
<path fill-rule="evenodd" clip-rule="evenodd" d="M0.558502 8.92926C2.58909 8.92926 4.60572 8.92926 6.63878 8.92926C6.63878 14.9299 6.63878 20.9274 6.63878 26.9387C4.61913 26.9387 2.59757 26.9387 0.558502 26.9387C0.558502 20.9442 0.558502 14.9469 0.558502 8.92926Z" fill="#4484FF"/>
<path fill-rule="evenodd" clip-rule="evenodd" d="M3.59277 6.72397C2.56724 6.68423 1.65636 6.38992 0.968747 5.60837C0.155544 4.68376 -0.0162907 3.59775 0.364317 2.44926C0.745745 1.29802 1.60902 0.654585 2.77164 0.413158C3.66173 0.228457 4.53759 0.296696 5.36147 0.710219C6.48441 1.27364 7.16491 2.52873 7.0374 3.77039C6.89457 5.1647 6.03923 6.19891 4.71736 6.54009C4.35098 6.63463 3.96818 6.6645 3.59277 6.72397Z" fill="#4484FF"/>
</svg>
