<svg width="74" height="53" viewBox="0 0 74 53" fill="none" xmlns="http://www.w3.org/2000/svg">
<path d="M2.81628 41.4644C2.44812 41.4644 2.07714 41.3925 1.72466 41.2442C0.679653 40.8049 0 39.7816 0 38.6477V2.81943C0 1.26358 1.26124 0.00274658 2.81668 0.00274658H39.4344C40.5794 0.00274658 41.6104 0.695663 42.0428 1.75594C42.4753 2.81621 42.2229 4.03243 41.4046 4.83307L4.78651 40.6614C4.24994 41.1867 3.53894 41.4644 2.81628 41.4644ZM5.63337 5.63611V31.9509L32.5285 5.63611H5.63337Z" fill="#FEE213"/>
<path d="M54.8247 41.4636C54.6266 41.4636 54.426 41.4427 54.2255 41.3993C52.9309 41.1179 52.0068 39.9716 52.0068 38.6465V9.55122L20.465 40.6521C19.3573 41.7437 17.5736 41.7317 16.4816 40.624C15.3892 39.5163 15.402 37.7325 16.5097 36.6401L52.8465 0.811791C53.6551 0.0143743 54.8641 -0.219548 55.9111 0.218951C56.9585 0.657048 57.6406 1.68196 57.6406 2.81739V25.6792L68.5986 1.64859C69.1485 0.442823 70.4632 -0.217134 71.7594 0.0646143C73.0544 0.345961 73.9784 1.49185 73.9784 2.81739V38.6457C73.9784 40.2015 72.7172 41.4624 71.1613 41.4624C69.6059 41.4624 68.3446 40.2011 68.3446 38.6457V15.7839L57.3866 39.8153C56.922 40.8346 55.9091 41.4636 54.8247 41.4636Z" fill="#333333"/>
<path d="M4.18755 50.359C4.21086 51.402 3.54286 52.4567 2.10719 52.4567C1.64417 52.4567 1.18116 52.4567 0.71814 52.4567V48.3542C1.18116 48.3542 1.64417 48.3542 2.10719 48.3542C3.49583 48.3546 4.16384 49.351 4.18755 50.359ZM1.03485 48.6541V52.1524H2.10719C3.32622 52.1524 3.88851 51.238 3.87083 50.3594C3.85355 49.5037 3.29085 48.6541 2.10719 48.6541H1.03485Z" fill="#333333"/>
<path d="M10.5115 52.4566L10.0601 51.4486H7.6108L7.16547 52.4566H6.82544L8.66545 48.3542H9.0111L10.8511 52.4566H10.5115ZM9.93674 51.156L8.83506 48.6596L7.73339 51.156H9.93674Z" fill="#333333"/>
<path d="M13.8634 48.3546L16.6235 51.748V48.3546H16.9337V52.457H16.8108L14.0447 49.07V52.457H13.7284V48.3546H13.8634Z" fill="#333333"/>
<path d="M20.1991 52.4566V48.3542H20.5094V52.4566H20.1991Z" fill="#333333"/>
<path d="M24.0672 50.2476H26.4699V50.535H24.0672V52.1523H26.6572V52.457H23.7565V48.3546H26.5868V48.654H24.0672V50.2476Z" fill="#333333"/>
<path d="M30.0156 48.3546V52.158H32.3243V52.4566H29.6993V48.3542H30.0156V48.3546Z" fill="#333333"/>
<path d="M42.8029 48.812L41.2326 51.2147H41.1273L39.5449 48.812V52.4566H39.2286V48.3542C39.381 48.3542 39.4513 48.3542 39.6036 48.3542L41.1739 50.7456L42.7266 48.3542H43.1136V52.4566H42.8029V48.812Z" fill="#333333"/>
<path d="M49.5018 48.3546V50.904C49.5018 53.0486 46.3607 53.0546 46.3607 50.904V48.3546H46.6714V50.904C46.6714 52.6676 49.1911 52.6616 49.1911 50.904V48.3546H49.5018Z" fill="#333333"/>
<path d="M53.0242 48.3546V52.158H55.3333V52.4566H52.7079V48.3542H53.0242V48.3546Z" fill="#333333"/>
<path d="M61.0707 48.3546L59.3834 52.4686H59.0434L57.3557 48.3546H57.6957L59.2134 52.1049L60.7307 48.3546H61.0707Z" fill="#333333"/>
<path d="M67.2241 52.4566L66.7732 51.4486H64.3234L63.8781 52.4566H63.5381L65.3781 48.3542H65.7237L67.5638 52.4566H67.2241ZM66.6498 51.156L65.5481 48.6596L64.4464 51.156H66.6498Z" fill="#333333"/>
<path d="M73.9994 50.359C74.0227 51.402 73.3547 52.4566 71.9191 52.4566C71.4561 52.4566 70.9934 52.4566 70.53 52.4566V48.3542C70.9934 48.3542 71.4561 48.3542 71.9191 48.3542C73.3077 48.3546 73.9757 49.351 73.9994 50.359ZM70.8463 48.654V52.1524H71.9191C73.1377 52.1524 73.7004 51.238 73.6831 50.3594C73.6654 49.5037 73.1027 48.654 71.9191 48.654H70.8463Z" fill="#333333"/>
</svg>
